<?xml version="1.0" encoding="UTF-8" standalone="no"?>
<!DOCTYPE svg PUBLIC "-//W3C//DTD SVG 1.1//EN"
 "http://www.w3.org/Graphics/SVG/1.1/DTD/svg11.dtd">
<!-- Generated by graphviz version 2.47.0 (20210316.0004)
 -->
<!-- Title: dependencies Pages: 1 -->
<svg width="1148pt" height="284pt"
 viewBox="0.00 0.00 1148.00 284.00" xmlns="http://www.w3.org/2000/svg" xmlns:xlink="http://www.w3.org/1999/xlink">
<g id="graph0" class="graph" transform="scale(1 1) rotate(0) translate(4 280)">
<title>dependencies</title>
<polygon fill="white" stroke="transparent" points="-4,4 -4,-280 1144,-280 1144,4 -4,4"/>
<text text-anchor="start" x="549.01" y="-42.4" font-family="Times-12" font-weight="bold" font-size="14.00">Legend</text>
<polygon fill="#ffffb3" stroke="transparent" points="336,-10 336,-30 356,-30 356,-10 336,-10"/>
<text text-anchor="start" x="359.63" y="-15.4" font-family="Times-12" font-size="14.00"> &#160;Declarations</text>
<polygon fill="#8dd3c7" stroke="transparent" points="449,-10 449,-30 469,-30 469,-10 449,-10"/>
<text text-anchor="start" x="472.73" y="-15.4" font-family="Times-12" font-size="14.00"> &#160;Module</text>
<polygon fill="#80b1d3" stroke="transparent" points="535,-10 535,-30 555,-30 555,-10 535,-10"/>
<text text-anchor="start" x="558.78" y="-15.4" font-family="Times-12" font-size="14.00"> &#160;Bootstrap</text>
<polygon fill="#fdb462" stroke="transparent" points="632,-10 632,-30 652,-30 652,-10 632,-10"/>
<text text-anchor="start" x="655.67" y="-15.4" font-family="Times-12" font-size="14.00"> &#160;Providers</text>
<polygon fill="#fb8072" stroke="transparent" points="728,-10 728,-30 748,-30 748,-10 728,-10"/>
<text text-anchor="start" x="751.73" y="-15.4" font-family="Times-12" font-size="14.00"> &#160;Exports</text>
<g id="clust1" class="cluster">
<title>cluster_AppModule</title>
<polygon fill="none" stroke="black" stroke-dasharray="1,5" points="8,-70 8,-268 1132,-268 1132,-70 8,-70"/>
</g>
<g id="clust10" class="cluster">
<title>cluster_AppModule_imports</title>
<polygon fill="none" stroke="black" points="980,-78 980,-130 1124,-130 1124,-78 980,-78"/>
</g>
<g id="clust12" class="cluster">
<title>cluster_AppModule_bootstrap</title>
<polygon fill="none" stroke="black" points="516,-208 516,-260 640,-260 640,-208 516,-208"/>
</g>
<g id="clust2" class="cluster">
<title>cluster_AppModule_declarations</title>
<polygon fill="none" stroke="black" points="16,-78 16,-130 972,-130 972,-78 16,-78"/>
</g>
<!-- AppComponent -->
<g id="node1" class="node">
<title>AppComponent</title>
<polygon fill="#ffffb3" stroke="black" points="963.94,-122 858.06,-122 858.06,-86 963.94,-86 963.94,-122"/>
<text text-anchor="middle" x="911" y="-99.8" font-family="Times,serif" font-size="14.00">AppComponent</text>
</g>
<!-- AppModule -->
<g id="node8" class="node">
<title>AppModule</title>
<polygon fill="#8dd3c7" stroke="black" points="619.66,-187 616.66,-191 595.66,-191 592.66,-187 536.34,-187 536.34,-151 619.66,-151 619.66,-187"/>
<text text-anchor="middle" x="578" y="-164.8" font-family="Times,serif" font-size="14.00">AppModule</text>
</g>
<!-- AppComponent&#45;&gt;AppModule -->
<g id="edge1" class="edge">
<title>AppComponent&#45;&gt;AppModule</title>
<path fill="none" stroke="black" d="M911,-122.11C911,-141.34 911,-169 911,-169 911,-169 629.84,-169 629.84,-169"/>
<polygon fill="black" stroke="black" points="629.84,-165.5 619.84,-169 629.84,-172.5 629.84,-165.5"/>
</g>
<!-- CardComponent -->
<g id="node2" class="node">
<title>CardComponent</title>
<polygon fill="#ffffb3" stroke="black" points="840.05,-122 731.95,-122 731.95,-86 840.05,-86 840.05,-122"/>
<text text-anchor="middle" x="786" y="-99.8" font-family="Times,serif" font-size="14.00">CardComponent</text>
</g>
<!-- CardComponent&#45;&gt;AppModule -->
<g id="edge2" class="edge">
<title>CardComponent&#45;&gt;AppModule</title>
<path fill="none" stroke="black" d="M786,-122.03C786,-138.4 786,-160 786,-160 786,-160 630.09,-160 630.09,-160"/>
<polygon fill="black" stroke="black" points="630.09,-156.5 620.09,-160 630.09,-163.5 630.09,-156.5"/>
</g>
<!-- FavoriteComponent -->
<g id="node3" class="node">
<title>FavoriteComponent</title>
<polygon fill="#ffffb3" stroke="black" points="713.99,-122 586.01,-122 586.01,-86 713.99,-86 713.99,-122"/>
<text text-anchor="middle" x="650" y="-99.8" font-family="Times,serif" font-size="14.00">FavoriteComponent</text>
</g>
<!-- FavoriteComponent&#45;&gt;AppModule -->
<g id="edge3" class="edge">
<title>FavoriteComponent&#45;&gt;AppModule</title>
<path fill="none" stroke="black" d="M602.92,-122.11C602.92,-122.11 602.92,-140.99 602.92,-140.99"/>
<polygon fill="black" stroke="black" points="599.42,-140.99 602.92,-150.99 606.42,-140.99 599.42,-140.99"/>
</g>
<!-- HeaderComponent -->
<g id="node4" class="node">
<title>HeaderComponent</title>
<polygon fill="#ffffb3" stroke="black" points="567.74,-122 446.26,-122 446.26,-86 567.74,-86 567.74,-122"/>
<text text-anchor="middle" x="507" y="-99.8" font-family="Times,serif" font-size="14.00">HeaderComponent</text>
</g>
<!-- HeaderComponent&#45;&gt;AppModule -->
<g id="edge4" class="edge">
<title>HeaderComponent&#45;&gt;AppModule</title>
<path fill="none" stroke="black" d="M552.02,-122.11C552.02,-122.11 552.02,-140.99 552.02,-140.99"/>
<polygon fill="black" stroke="black" points="548.52,-140.99 552.02,-150.99 555.52,-140.99 548.52,-140.99"/>
</g>
<!-- HomeComponent -->
<g id="node5" class="node">
<title>HomeComponent</title>
<polygon fill="#ffffb3" stroke="black" points="427.55,-122 312.45,-122 312.45,-86 427.55,-86 427.55,-122"/>
<text text-anchor="middle" x="370" y="-99.8" font-family="Times,serif" font-size="14.00">HomeComponent</text>
</g>
<!-- HomeComponent&#45;&gt;AppModule -->
<g id="edge5" class="edge">
<title>HomeComponent&#45;&gt;AppModule</title>
<path fill="none" stroke="black" d="M370,-122.03C370,-138.4 370,-160 370,-160 370,-160 525.91,-160 525.91,-160"/>
<polygon fill="black" stroke="black" points="525.91,-163.5 535.91,-160 525.91,-156.5 525.91,-163.5"/>
</g>
<!-- LoadingComponent -->
<g id="node6" class="node">
<title>LoadingComponent</title>
<polygon fill="#ffffb3" stroke="black" points="293.99,-122 166.01,-122 166.01,-86 293.99,-86 293.99,-122"/>
<text text-anchor="middle" x="230" y="-99.8" font-family="Times,serif" font-size="14.00">LoadingComponent</text>
</g>
<!-- LoadingComponent&#45;&gt;AppModule -->
<g id="edge6" class="edge">
<title>LoadingComponent&#45;&gt;AppModule</title>
<path fill="none" stroke="black" d="M230,-122.11C230,-141.34 230,-169 230,-169 230,-169 526.02,-169 526.02,-169"/>
<polygon fill="black" stroke="black" points="526.02,-172.5 536.02,-169 526.02,-165.5 526.02,-172.5"/>
</g>
<!-- NoDataComponent -->
<g id="node7" class="node">
<title>NoDataComponent</title>
<polygon fill="#ffffb3" stroke="black" points="148.37,-122 23.63,-122 23.63,-86 148.37,-86 148.37,-122"/>
<text text-anchor="middle" x="86" y="-99.8" font-family="Times,serif" font-size="14.00">NoDataComponent</text>
</g>
<!-- NoDataComponent&#45;&gt;AppModule -->
<g id="edge7" class="edge">
<title>NoDataComponent&#45;&gt;AppModule</title>
<path fill="none" stroke="black" d="M86,-122.29C86,-144.21 86,-178 86,-178 86,-178 526.05,-178 526.05,-178"/>
<polygon fill="black" stroke="black" points="526.05,-181.5 536.05,-178 526.05,-174.5 526.05,-181.5"/>
</g>
<!-- AppComponent  -->
<g id="node10" class="node">
<title>AppComponent </title>
<polygon fill="#80b1d3" stroke="black" points="632.44,-252 523.56,-252 523.56,-216 632.44,-216 632.44,-252"/>
<text text-anchor="middle" x="578" y="-229.8" font-family="Times,serif" font-size="14.00">AppComponent </text>
</g>
<!-- AppModule&#45;&gt;AppComponent  -->
<g id="edge9" class="edge">
<title>AppModule&#45;&gt;AppComponent </title>
<path fill="none" stroke="black" stroke-dasharray="1,5" d="M578,-187.11C578,-187.11 578,-205.99 578,-205.99"/>
<polygon fill="black" stroke="black" points="574.5,-205.99 578,-215.99 581.5,-205.99 574.5,-205.99"/>
</g>
<!-- AppRoutingModule -->
<g id="node9" class="node">
<title>AppRoutingModule</title>
<polygon fill="#8dd3c7" stroke="black" points="1116.27,-122 1113.27,-126 1092.27,-126 1089.27,-122 987.73,-122 987.73,-86 1116.27,-86 1116.27,-122"/>
<text text-anchor="middle" x="1052" y="-99.8" font-family="Times,serif" font-size="14.00">AppRoutingModule</text>
</g>
<!-- AppRoutingModule&#45;&gt;AppModule -->
<g id="edge8" class="edge">
<title>AppRoutingModule&#45;&gt;AppModule</title>
<path fill="none" stroke="black" d="M1052,-122.29C1052,-144.21 1052,-178 1052,-178 1052,-178 630.06,-178 630.06,-178"/>
<polygon fill="black" stroke="black" points="630.06,-174.5 620.06,-178 630.06,-181.5 630.06,-174.5"/>
</g>
</g>
</svg>
