<?xml version="1.0" encoding="UTF-8" standalone="no"?>
<!DOCTYPE svg PUBLIC "-//W3C//DTD SVG 1.1//EN"
 "http://www.w3.org/Graphics/SVG/1.1/DTD/svg11.dtd">
<!-- Generated by graphviz version 2.47.0 (20210316.0004)
 -->
<!-- Title: dependencies Pages: 1 -->
<svg width="1002pt" height="284pt"
 viewBox="0.00 0.00 1002.00 284.00" xmlns="http://www.w3.org/2000/svg" xmlns:xlink="http://www.w3.org/1999/xlink">
<g id="graph0" class="graph" transform="scale(1 1) rotate(0) translate(4 280)">
<title>dependencies</title>
<polygon fill="white" stroke="transparent" points="-4,4 -4,-280 998,-280 998,4 -4,4"/>
<text text-anchor="start" x="476.01" y="-42.4" font-family="Times-12" font-weight="bold" font-size="14.00">Legend</text>
<polygon fill="#ffffb3" stroke="transparent" points="263,-10 263,-30 283,-30 283,-10 263,-10"/>
<text text-anchor="start" x="286.63" y="-15.4" font-family="Times-12" font-size="14.00"> &#160;Declarations</text>
<polygon fill="#8dd3c7" stroke="transparent" points="376,-10 376,-30 396,-30 396,-10 376,-10"/>
<text text-anchor="start" x="399.73" y="-15.4" font-family="Times-12" font-size="14.00"> &#160;Module</text>
<polygon fill="#80b1d3" stroke="transparent" points="462,-10 462,-30 482,-30 482,-10 462,-10"/>
<text text-anchor="start" x="485.78" y="-15.4" font-family="Times-12" font-size="14.00"> &#160;Bootstrap</text>
<polygon fill="#fdb462" stroke="transparent" points="559,-10 559,-30 579,-30 579,-10 559,-10"/>
<text text-anchor="start" x="582.67" y="-15.4" font-family="Times-12" font-size="14.00"> &#160;Providers</text>
<polygon fill="#fb8072" stroke="transparent" points="655,-10 655,-30 675,-30 675,-10 655,-10"/>
<text text-anchor="start" x="678.73" y="-15.4" font-family="Times-12" font-size="14.00"> &#160;Exports</text>
<g id="clust1" class="cluster">
<title>cluster_AppModule</title>
<polygon fill="none" stroke="black" stroke-dasharray="1,5" points="8,-70 8,-268 986,-268 986,-70 8,-70"/>
</g>
<g id="clust2" class="cluster">
<title>cluster_AppModule_declarations</title>
<polygon fill="none" stroke="black" points="168,-78 168,-130 978,-130 978,-78 168,-78"/>
</g>
<g id="clust9" class="cluster">
<title>cluster_AppModule_imports</title>
<polygon fill="none" stroke="black" points="16,-78 16,-130 160,-130 160,-78 16,-78"/>
</g>
<g id="clust11" class="cluster">
<title>cluster_AppModule_bootstrap</title>
<polygon fill="none" stroke="black" points="451,-208 451,-260 575,-260 575,-208 451,-208"/>
</g>
<!-- AppComponent -->
<g id="node1" class="node">
<title>AppComponent</title>
<polygon fill="#ffffb3" stroke="black" points="969.94,-122 864.06,-122 864.06,-86 969.94,-86 969.94,-122"/>
<text text-anchor="middle" x="917" y="-99.8" font-family="Times,serif" font-size="14.00">AppComponent</text>
</g>
<!-- AppModule -->
<g id="node7" class="node">
<title>AppModule</title>
<polygon fill="#8dd3c7" stroke="black" points="554.66,-187 551.66,-191 530.66,-191 527.66,-187 471.34,-187 471.34,-151 554.66,-151 554.66,-187"/>
<text text-anchor="middle" x="513" y="-164.8" font-family="Times,serif" font-size="14.00">AppModule</text>
</g>
<!-- AppComponent&#45;&gt;AppModule -->
<g id="edge1" class="edge">
<title>AppComponent&#45;&gt;AppModule</title>
<path fill="none" stroke="black" d="M917,-122.29C917,-144.21 917,-178 917,-178 917,-178 564.71,-178 564.71,-178"/>
<polygon fill="black" stroke="black" points="564.71,-174.5 554.71,-178 564.71,-181.5 564.71,-174.5"/>
</g>
<!-- CardComponent -->
<g id="node2" class="node">
<title>CardComponent</title>
<polygon fill="#ffffb3" stroke="black" points="846.05,-122 737.95,-122 737.95,-86 846.05,-86 846.05,-122"/>
<text text-anchor="middle" x="792" y="-99.8" font-family="Times,serif" font-size="14.00">CardComponent</text>
</g>
<!-- CardComponent&#45;&gt;AppModule -->
<g id="edge2" class="edge">
<title>CardComponent&#45;&gt;AppModule</title>
<path fill="none" stroke="black" d="M792,-122.11C792,-141.34 792,-169 792,-169 792,-169 564.77,-169 564.77,-169"/>
<polygon fill="black" stroke="black" points="564.77,-165.5 554.77,-169 564.77,-172.5 564.77,-165.5"/>
</g>
<!-- FavoriteComponent -->
<g id="node3" class="node">
<title>FavoriteComponent</title>
<polygon fill="#ffffb3" stroke="black" points="719.99,-122 592.01,-122 592.01,-86 719.99,-86 719.99,-122"/>
<text text-anchor="middle" x="656" y="-99.8" font-family="Times,serif" font-size="14.00">FavoriteComponent</text>
</g>
<!-- FavoriteComponent&#45;&gt;AppModule -->
<g id="edge3" class="edge">
<title>FavoriteComponent&#45;&gt;AppModule</title>
<path fill="none" stroke="black" d="M656,-122.03C656,-138.4 656,-160 656,-160 656,-160 564.75,-160 564.75,-160"/>
<polygon fill="black" stroke="black" points="564.75,-156.5 554.75,-160 564.75,-163.5 564.75,-156.5"/>
</g>
<!-- HeaderComponent -->
<g id="node4" class="node">
<title>HeaderComponent</title>
<polygon fill="#ffffb3" stroke="black" points="573.74,-122 452.26,-122 452.26,-86 573.74,-86 573.74,-122"/>
<text text-anchor="middle" x="513" y="-99.8" font-family="Times,serif" font-size="14.00">HeaderComponent</text>
</g>
<!-- HeaderComponent&#45;&gt;AppModule -->
<g id="edge4" class="edge">
<title>HeaderComponent&#45;&gt;AppModule</title>
<path fill="none" stroke="black" d="M513,-122.11C513,-122.11 513,-140.99 513,-140.99"/>
<polygon fill="black" stroke="black" points="509.5,-140.99 513,-150.99 516.5,-140.99 509.5,-140.99"/>
</g>
<!-- HomeComponent -->
<g id="node5" class="node">
<title>HomeComponent</title>
<polygon fill="#ffffb3" stroke="black" points="433.55,-122 318.45,-122 318.45,-86 433.55,-86 433.55,-122"/>
<text text-anchor="middle" x="376" y="-99.8" font-family="Times,serif" font-size="14.00">HomeComponent</text>
</g>
<!-- HomeComponent&#45;&gt;AppModule -->
<g id="edge5" class="edge">
<title>HomeComponent&#45;&gt;AppModule</title>
<path fill="none" stroke="black" d="M376,-122.03C376,-138.4 376,-160 376,-160 376,-160 461.15,-160 461.15,-160"/>
<polygon fill="black" stroke="black" points="461.15,-163.5 471.15,-160 461.15,-156.5 461.15,-163.5"/>
</g>
<!-- NoDataComponent -->
<g id="node6" class="node">
<title>NoDataComponent</title>
<polygon fill="#ffffb3" stroke="black" points="300.37,-122 175.63,-122 175.63,-86 300.37,-86 300.37,-122"/>
<text text-anchor="middle" x="238" y="-99.8" font-family="Times,serif" font-size="14.00">NoDataComponent</text>
</g>
<!-- NoDataComponent&#45;&gt;AppModule -->
<g id="edge6" class="edge">
<title>NoDataComponent&#45;&gt;AppModule</title>
<path fill="none" stroke="black" d="M238,-122.11C238,-141.34 238,-169 238,-169 238,-169 461.23,-169 461.23,-169"/>
<polygon fill="black" stroke="black" points="461.23,-172.5 471.23,-169 461.23,-165.5 461.23,-172.5"/>
</g>
<!-- AppComponent  -->
<g id="node9" class="node">
<title>AppComponent </title>
<polygon fill="#80b1d3" stroke="black" points="567.44,-252 458.56,-252 458.56,-216 567.44,-216 567.44,-252"/>
<text text-anchor="middle" x="513" y="-229.8" font-family="Times,serif" font-size="14.00">AppComponent </text>
</g>
<!-- AppModule&#45;&gt;AppComponent  -->
<g id="edge8" class="edge">
<title>AppModule&#45;&gt;AppComponent </title>
<path fill="none" stroke="black" stroke-dasharray="1,5" d="M513,-187.11C513,-187.11 513,-205.99 513,-205.99"/>
<polygon fill="black" stroke="black" points="509.5,-205.99 513,-215.99 516.5,-205.99 509.5,-205.99"/>
</g>
<!-- AppRoutingModule -->
<g id="node8" class="node">
<title>AppRoutingModule</title>
<polygon fill="#8dd3c7" stroke="black" points="152.27,-122 149.27,-126 128.27,-126 125.27,-122 23.73,-122 23.73,-86 152.27,-86 152.27,-122"/>
<text text-anchor="middle" x="88" y="-99.8" font-family="Times,serif" font-size="14.00">AppRoutingModule</text>
</g>
<!-- AppRoutingModule&#45;&gt;AppModule -->
<g id="edge7" class="edge">
<title>AppRoutingModule&#45;&gt;AppModule</title>
<path fill="none" stroke="black" d="M88,-122.29C88,-144.21 88,-178 88,-178 88,-178 461.09,-178 461.09,-178"/>
<polygon fill="black" stroke="black" points="461.09,-181.5 471.09,-178 461.09,-174.5 461.09,-181.5"/>
</g>
</g>
</svg>
