<?xml version="1.0" encoding="UTF-8" standalone="no"?>
<!DOCTYPE svg PUBLIC "-//W3C//DTD SVG 1.1//EN"
 "http://www.w3.org/Graphics/SVG/1.1/DTD/svg11.dtd">
<!-- Generated by graphviz version 2.47.0 (20210316.0004)
 -->
<!-- Title: dependencies Pages: 1 -->
<svg width="1148pt" height="284pt"
 viewBox="0.00 0.00 1148.00 284.00" xmlns="http://www.w3.org/2000/svg" xmlns:xlink="http://www.w3.org/1999/xlink">
<g id="graph0" class="graph" transform="scale(1 1) rotate(0) translate(4 280)">
<title>dependencies</title>
<polygon fill="white" stroke="transparent" points="-4,4 -4,-280 1144,-280 1144,4 -4,4"/>
<text text-anchor="start" x="549.01" y="-42.4" font-family="Times-12" font-weight="bold" font-size="14.00">Legend</text>
<polygon fill="#ffffb3" stroke="transparent" points="336,-10 336,-30 356,-30 356,-10 336,-10"/>
<text text-anchor="start" x="359.63" y="-15.4" font-family="Times-12" font-size="14.00"> &#160;Declarations</text>
<polygon fill="#8dd3c7" stroke="transparent" points="449,-10 449,-30 469,-30 469,-10 449,-10"/>
<text text-anchor="start" x="472.73" y="-15.4" font-family="Times-12" font-size="14.00"> &#160;Module</text>
<polygon fill="#80b1d3" stroke="transparent" points="535,-10 535,-30 555,-30 555,-10 535,-10"/>
<text text-anchor="start" x="558.78" y="-15.4" font-family="Times-12" font-size="14.00"> &#160;Bootstrap</text>
<polygon fill="#fdb462" stroke="transparent" points="632,-10 632,-30 652,-30 652,-10 632,-10"/>
<text text-anchor="start" x="655.67" y="-15.4" font-family="Times-12" font-size="14.00"> &#160;Providers</text>
<polygon fill="#fb8072" stroke="transparent" points="728,-10 728,-30 748,-30 748,-10 728,-10"/>
<text text-anchor="start" x="751.73" y="-15.4" font-family="Times-12" font-size="14.00"> &#160;Exports</text>
<g id="clust1" class="cluster">
<title>cluster_AppModule</title>
<polygon fill="none" stroke="black" stroke-dasharray="1,5" points="8,-70 8,-268 1132,-268 1132,-70 8,-70"/>
</g>
<g id="clust2" class="cluster">
<title>cluster_AppModule_declarations</title>
<polygon fill="none" stroke="black" points="168,-78 168,-130 1124,-130 1124,-78 168,-78"/>
</g>
<g id="clust10" class="cluster">
<title>cluster_AppModule_imports</title>
<polygon fill="none" stroke="black" points="16,-78 16,-130 160,-130 160,-78 16,-78"/>
</g>
<g id="clust12" class="cluster">
<title>cluster_AppModule_bootstrap</title>
<polygon fill="none" stroke="black" points="528,-208 528,-260 652,-260 652,-208 528,-208"/>
</g>
<!-- AppComponent -->
<g id="node1" class="node">
<title>AppComponent</title>
<polygon fill="#ffffb3" stroke="black" points="1115.94,-122 1010.06,-122 1010.06,-86 1115.94,-86 1115.94,-122"/>
<text text-anchor="middle" x="1063" y="-99.8" font-family="Times,serif" font-size="14.00">AppComponent</text>
</g>
<!-- AppModule -->
<g id="node8" class="node">
<title>AppModule</title>
<polygon fill="#8dd3c7" stroke="black" points="631.66,-187 628.66,-191 607.66,-191 604.66,-187 548.34,-187 548.34,-151 631.66,-151 631.66,-187"/>
<text text-anchor="middle" x="590" y="-164.8" font-family="Times,serif" font-size="14.00">AppModule</text>
</g>
<!-- AppComponent&#45;&gt;AppModule -->
<g id="edge1" class="edge">
<title>AppComponent&#45;&gt;AppModule</title>
<path fill="none" stroke="black" d="M1063,-122.29C1063,-144.21 1063,-178 1063,-178 1063,-178 641.98,-178 641.98,-178"/>
<polygon fill="black" stroke="black" points="641.98,-174.5 631.98,-178 641.98,-181.5 641.98,-174.5"/>
</g>
<!-- CardComponent -->
<g id="node2" class="node">
<title>CardComponent</title>
<polygon fill="#ffffb3" stroke="black" points="992.05,-122 883.95,-122 883.95,-86 992.05,-86 992.05,-122"/>
<text text-anchor="middle" x="938" y="-99.8" font-family="Times,serif" font-size="14.00">CardComponent</text>
</g>
<!-- CardComponent&#45;&gt;AppModule -->
<g id="edge2" class="edge">
<title>CardComponent&#45;&gt;AppModule</title>
<path fill="none" stroke="black" d="M938,-122.11C938,-141.34 938,-169 938,-169 938,-169 641.98,-169 641.98,-169"/>
<polygon fill="black" stroke="black" points="641.98,-165.5 631.98,-169 641.98,-172.5 641.98,-165.5"/>
</g>
<!-- FavoriteComponent -->
<g id="node3" class="node">
<title>FavoriteComponent</title>
<polygon fill="#ffffb3" stroke="black" points="865.99,-122 738.01,-122 738.01,-86 865.99,-86 865.99,-122"/>
<text text-anchor="middle" x="802" y="-99.8" font-family="Times,serif" font-size="14.00">FavoriteComponent</text>
</g>
<!-- FavoriteComponent&#45;&gt;AppModule -->
<g id="edge3" class="edge">
<title>FavoriteComponent&#45;&gt;AppModule</title>
<path fill="none" stroke="black" d="M802,-122.03C802,-138.4 802,-160 802,-160 802,-160 641.88,-160 641.88,-160"/>
<polygon fill="black" stroke="black" points="641.88,-156.5 631.88,-160 641.88,-163.5 641.88,-156.5"/>
</g>
<!-- HeaderComponent -->
<g id="node4" class="node">
<title>HeaderComponent</title>
<polygon fill="#ffffb3" stroke="black" points="719.74,-122 598.26,-122 598.26,-86 719.74,-86 719.74,-122"/>
<text text-anchor="middle" x="659" y="-99.8" font-family="Times,serif" font-size="14.00">HeaderComponent</text>
</g>
<!-- HeaderComponent&#45;&gt;AppModule -->
<g id="edge4" class="edge">
<title>HeaderComponent&#45;&gt;AppModule</title>
<path fill="none" stroke="black" d="M614.98,-122.11C614.98,-122.11 614.98,-140.99 614.98,-140.99"/>
<polygon fill="black" stroke="black" points="611.48,-140.99 614.98,-150.99 618.48,-140.99 611.48,-140.99"/>
</g>
<!-- HomeComponent -->
<g id="node5" class="node">
<title>HomeComponent</title>
<polygon fill="#ffffb3" stroke="black" points="579.55,-122 464.45,-122 464.45,-86 579.55,-86 579.55,-122"/>
<text text-anchor="middle" x="522" y="-99.8" font-family="Times,serif" font-size="14.00">HomeComponent</text>
</g>
<!-- HomeComponent&#45;&gt;AppModule -->
<g id="edge5" class="edge">
<title>HomeComponent&#45;&gt;AppModule</title>
<path fill="none" stroke="black" d="M563.97,-122.11C563.97,-122.11 563.97,-140.99 563.97,-140.99"/>
<polygon fill="black" stroke="black" points="560.47,-140.99 563.97,-150.99 567.47,-140.99 560.47,-140.99"/>
</g>
<!-- LoadingComponent -->
<g id="node6" class="node">
<title>LoadingComponent</title>
<polygon fill="#ffffb3" stroke="black" points="445.99,-122 318.01,-122 318.01,-86 445.99,-86 445.99,-122"/>
<text text-anchor="middle" x="382" y="-99.8" font-family="Times,serif" font-size="14.00">LoadingComponent</text>
</g>
<!-- LoadingComponent&#45;&gt;AppModule -->
<g id="edge6" class="edge">
<title>LoadingComponent&#45;&gt;AppModule</title>
<path fill="none" stroke="black" d="M382,-122.03C382,-138.4 382,-160 382,-160 382,-160 537.91,-160 537.91,-160"/>
<polygon fill="black" stroke="black" points="537.91,-163.5 547.91,-160 537.91,-156.5 537.91,-163.5"/>
</g>
<!-- NoDataComponent -->
<g id="node7" class="node">
<title>NoDataComponent</title>
<polygon fill="#ffffb3" stroke="black" points="300.37,-122 175.63,-122 175.63,-86 300.37,-86 300.37,-122"/>
<text text-anchor="middle" x="238" y="-99.8" font-family="Times,serif" font-size="14.00">NoDataComponent</text>
</g>
<!-- NoDataComponent&#45;&gt;AppModule -->
<g id="edge7" class="edge">
<title>NoDataComponent&#45;&gt;AppModule</title>
<path fill="none" stroke="black" d="M238,-122.11C238,-141.34 238,-169 238,-169 238,-169 538.24,-169 538.24,-169"/>
<polygon fill="black" stroke="black" points="538.24,-172.5 548.24,-169 538.24,-165.5 538.24,-172.5"/>
</g>
<!-- AppComponent  -->
<g id="node10" class="node">
<title>AppComponent </title>
<polygon fill="#80b1d3" stroke="black" points="644.44,-252 535.56,-252 535.56,-216 644.44,-216 644.44,-252"/>
<text text-anchor="middle" x="590" y="-229.8" font-family="Times,serif" font-size="14.00">AppComponent </text>
</g>
<!-- AppModule&#45;&gt;AppComponent  -->
<g id="edge9" class="edge">
<title>AppModule&#45;&gt;AppComponent </title>
<path fill="none" stroke="black" stroke-dasharray="1,5" d="M590,-187.11C590,-187.11 590,-205.99 590,-205.99"/>
<polygon fill="black" stroke="black" points="586.5,-205.99 590,-215.99 593.5,-205.99 586.5,-205.99"/>
</g>
<!-- AppRoutingModule -->
<g id="node9" class="node">
<title>AppRoutingModule</title>
<polygon fill="#8dd3c7" stroke="black" points="152.27,-122 149.27,-126 128.27,-126 125.27,-122 23.73,-122 23.73,-86 152.27,-86 152.27,-122"/>
<text text-anchor="middle" x="88" y="-99.8" font-family="Times,serif" font-size="14.00">AppRoutingModule</text>
</g>
<!-- AppRoutingModule&#45;&gt;AppModule -->
<g id="edge8" class="edge">
<title>AppRoutingModule&#45;&gt;AppModule</title>
<path fill="none" stroke="black" d="M88,-122.29C88,-144.21 88,-178 88,-178 88,-178 538.06,-178 538.06,-178"/>
<polygon fill="black" stroke="black" points="538.06,-181.5 548.06,-178 538.06,-174.5 538.06,-181.5"/>
</g>
</g>
</svg>
